<svg width="94" height="66" viewBox="0 0 94 66" fill="none" xmlns="http://www.w3.org/2000/svg">
<path d="M32.6271 0L30.133 2.38303L2.38303 30.133L0 32.6271L2.38303 35.1211L30.133 62.8711L32.6271 65.2541L35.1211 62.8711L48.9961 48.9961L51.3791 46.5021L48.9961 44.008L31.6523 26.6643L26.6643 31.6523L41.514 46.5021L32.6271 55.3925L9.86166 32.6271L32.6271 9.86166L37.0705 14.3086L42.0621 9.31706L35.1246 2.37956L32.6271 0ZM60.3771 0L57.883 2.38303L44.008 16.258L41.625 18.7521L44.008 21.2461L61.3518 38.5898L66.3398 33.6018L51.4867 18.7521L60.3771 9.86166L83.1425 32.6271L60.3771 55.3925L55.9336 50.9455L50.9455 55.9336L57.883 62.8711L60.3771 65.2541L62.8711 62.8711L90.6211 35.1211L93.0041 32.6271L90.6211 30.133L62.8711 2.38303L60.3771 0Z" fill="white"/>
</svg>
